<?xml version="1.0" encoding="utf-8"?>
<svg viewBox="0 0 128 128" xmlns="http://www.w3.org/2000/svg">
  <linearGradient id="a" gradientTransform="matrix(0.45451 0 0 0.455522 -1210.292114 616.172607)" gradientUnits="userSpaceOnUse" x1="2689.251953" x2="2918.069824" y1="-1106.802979" y2="-1106.802979">
    <stop offset="0" stop-color="#62a0ea"/>
    <stop offset="0.0577" stop-color="#afd4ff"/>
    <stop offset="0.1222" stop-color="#62a0ea"/>
    <stop offset="0.8733" stop-color="#62a0ea"/>
    <stop offset="0.956" stop-color="#c0d5ea"/>
    <stop offset="1" stop-color="#62a0ea"/>
  </linearGradient>
  <path d="m 21.976562 12 c -5.527343 0 -9.976562 4.460938 -9.976562 10 v 86.03125 c 0 5.542969 4.449219 10 9.976562 10 h 84.042969 c 5.53125 0 9.980469 -4.457031 9.980469 -10 v -72.085938 c 0 -6.628906 -5.359375 -12 -11.972656 -12 h -46.027344 c -2.453125 0 -4.695312 -1.386718 -5.796875 -3.582031 l -1.503906 -2.992187 c -1.65625 -3.292969 -5.019531 -5.371094 -8.699219 -5.371094 z m 0 0" fill="#438de6" transform="matrix(1, 0, 0, 1, 0, 8.881784197001252e-16)"/>
  <path d="m 65.976562 36 c -2.746093 0 -5.226562 1.101562 -7.027343 2.890625 c -2.273438 2.253906 -5.382813 5.109375 -8.632813 5.109375 h -28.339844 c -5.527343 0 -9.976562 4.460938 -9.976562 10 v 54.03125 c 0 5.542969 4.449219 10 9.976562 10 h 84.042969 c 5.53125 0 9.980469 -4.457031 9.980469 -10 v -62.03125 c 0 -5.539062 -4.449219 -10 -9.980469 -10 z m 0 0" fill="url(#a)" transform="matrix(1, 0, 0, 1, 0, 8.881784197001252e-16)"/>
  <path d="m 65.976562 32 c -2.746093 0 -5.226562 1.101562 -7.027343 2.890625 c -2.273438 2.253906 -5.382813 5.109375 -8.632813 5.109375 h -28.339844 c -5.527343 0 -9.976562 4.460938 -9.976562 10 v 55.976562 c 0 5.539063 4.449219 10 9.976562 10 h 84.042969 c 5.53125 0 9.980469 -4.460937 9.980469 -10 v -63.976562 c 0 -5.539062 -4.449219 -10 -9.980469 -10 z m 0 0" fill="#a4caee" transform="matrix(1, 0, 0, 1, 0, 8.881784197001252e-16)"/>
  <path id="XMLID_107_" class="st0" d="M 64.027 64 C 57.649 64 52.243 68.324 50.568 74.163 C 49.108 71.027 45.973 68.865 42.297 68.865 C 37.325 68.865 33.216 72.973 33.216 78 C 33.216 83.027 37.325 87.135 42.351 87.135 C 45.973 87.135 49.163 84.973 50.621 81.837 C 52.243 87.676 57.649 92 64.027 92 C 70.352 92 75.758 87.731 77.487 81.946 C 78.947 84.973 82.082 87.081 85.649 87.081 C 90.676 87.081 94.784 82.973 94.784 77.946 C 94.784 72.919 90.676 68.865 85.649 68.865 C 82.082 68.865 78.947 70.973 77.487 74 C 75.758 68.271 70.406 64 64.027 64 Z M 64.027 69.352 C 68.838 69.352 72.676 73.189 72.676 78 C 72.676 82.811 68.838 86.648 64.027 86.648 C 59.217 86.648 55.379 82.811 55.379 78 C 55.379 73.189 59.217 69.352 64.027 69.352 Z M 42.351 74.216 C 44.46 74.216 46.136 75.892 46.136 78 C 46.136 80.108 44.46 81.784 42.351 81.784 C 40.243 81.784 38.568 80.108 38.568 78 C 38.568 75.892 40.243 74.216 42.351 74.216 Z M 85.649 74.216 C 87.758 74.216 89.433 75.892 89.433 78 C 89.433 80.108 87.758 81.784 85.649 81.784 C 83.541 81.784 81.865 80.108 81.865 78 C 81.919 75.892 83.541 74.216 85.649 74.216 Z" style="stroke-width: 0.561896; fill: rgb(67, 141, 230);" transform="matrix(1, 0, 0, 1, 0, 8.881784197001252e-16)"/>
</svg>